<?xml version="1.0" standalone="no"?>
<!DOCTYPE svg PUBLIC "-//W3C//DTD SVG 20010904//EN"
 "http://www.w3.org/TR/2001/REC-SVG-20010904/DTD/svg10.dtd">
<svg version="1.0" xmlns="http://www.w3.org/2000/svg"
 width="800.000000pt" height="742.000000pt" viewBox="0 0 800.000000 742.000000"
 preserveAspectRatio="xMidYMid meet">

<g transform="translate(0.000000,742.000000) scale(0.100000,-0.100000)"
fill="#000000" stroke="none">
<path d="M1416 7318 c-9 -13 -14 -16 -11 -8 4 8 -3 4 -15 -10 -12 -14 -19 -18
-15 -10 4 8 -3 4 -15 -10 -12 -14 -19 -18 -15 -10 4 8 -3 4 -15 -10 -12 -14
-19 -18 -15 -10 4 8 -3 4 -15 -10 -12 -14 -19 -18 -15 -10 4 8 -3 4 -15 -10
-12 -14 -19 -18 -15 -10 4 8 -3 4 -15 -10 -12 -14 -19 -18 -15 -10 4 8 -3 4
-15 -10 -12 -14 -18 -19 -14 -11 5 10 -90 -47 -125 -75 -2 -2 5 -3 15 -3 11 0
66 -11 124 -25 58 -14 112 -26 121 -26 18 0 382 241 375 248 -7 7 -220 51
-247 52 -16 0 -33 -9 -43 -22z"/>
<path d="M1910 7214 c0 -23 -8 -38 -26 -53 l-26 -20 24 -6 c12 -3 164 -36 335
-73 215 -47 319 -74 333 -87 14 -12 20 -31 20 -57 0 -51 -12 -71 -55 -98 -19
-12 -33 -25 -31 -29 3 -4 37 -13 75 -20 l70 -13 181 123 c99 67 178 124 175
127 -2 3 -246 58 -540 122 l-535 117 0 -33z"/>
<path d="M1517 6912 l-147 -99 77 -17 77 -17 148 99 149 99 -58 12 c-32 6 -67
14 -78 16 -14 4 -65 -24 -168 -93z"/>
<path d="M896 6968 c-9 -13 -14 -16 -11 -8 4 8 -3 4 -15 -10 -12 -14 -19 -18
-15 -10 4 8 -3 4 -15 -10 -12 -14 -19 -18 -15 -10 4 8 -3 4 -15 -10 -12 -14
-19 -18 -15 -10 4 8 -3 4 -15 -10 -12 -14 -19 -18 -15 -10 4 8 -3 4 -15 -10
-12 -14 -19 -18 -15 -10 4 8 -3 4 -15 -10 -12 -14 -19 -18 -15 -10 4 8 -3 4
-15 -10 -12 -14 -19 -18 -15 -10 4 8 -3 4 -15 -10 -12 -14 -19 -18 -15 -10 4
8 -3 4 -15 -10 -12 -14 -18 -18 -14 -10 6 12 4 13 -6 3 -8 -7 -12 -14 -9 -17
2 -2 247 -56 544 -120 297 -64 545 -119 551 -121 6 -2 23 4 37 14 26 17 21 18
-305 89 -183 40 -342 79 -355 87 -19 13 -23 24 -23 70 0 54 0 55 49 88 l50 33
-87 18 c-95 19 -155 43 -146 57 11 19 -4 8 -20 -13z"/>
<path d="M3200 6930 c0 -27 -12 -38 -145 -127 -80 -53 -145 -99 -145 -103 0
-4 50 -17 110 -30 139 -28 160 -43 160 -111 0 -47 -2 -51 -45 -81 -52 -37 -48
-41 41 -58 l61 -12 141 94 c78 51 142 96 142 99 0 3 -50 16 -110 29 -138 28
-160 43 -160 109 0 55 7 63 112 133 l68 45 -104 21 c-56 12 -108 22 -114 22
-7 0 -12 -13 -12 -30z"/>
<path d="M1952 6823 c-75 -51 -135 -97 -134 -101 2 -4 52 -18 110 -30 131 -29
152 -45 152 -113 0 -44 -3 -50 -37 -75 -21 -16 -42 -31 -46 -35 -5 -4 25 -14
67 -23 l75 -17 89 59 c48 33 113 78 144 99 l56 40 -120 26 c-67 15 -129 34
-140 43 -13 12 -18 31 -18 65 0 44 3 50 46 86 l46 38 -77 16 -77 15 -136 -93z"/>
<path d="M3610 6841 c0 -19 -7 -43 -17 -53 -9 -10 -14 -20 -12 -22 2 -1 147
-34 322 -72 175 -37 332 -76 348 -86 26 -16 29 -23 29 -68 0 -47 -2 -51 -45
-82 -24 -18 -44 -35 -45 -38 0 -3 33 -12 74 -21 l74 -15 185 127 186 126 -197
43 c-108 23 -356 77 -549 119 l-353 77 0 -35z"/>
<path d="M4908 6559 c-3 -35 -11 -41 -282 -222 -16 -11 -2 -16 104 -40 68 -15
131 -34 142 -44 15 -13 18 -28 16 -67 -3 -46 -7 -53 -46 -83 -48 -36 -48 -36
43 -56 l60 -13 143 95 c78 52 139 98 135 102 -5 4 -55 17 -113 29 -143 29
-152 36 -148 108 l3 57 82 55 c45 30 82 57 83 60 0 5 -51 17 -197 48 -18 3
-22 -1 -25 -29z"/>
<path d="M570 6456 c0 -101 2 -115 18 -120 9 -2 177 -39 372 -81 194 -43 364
-81 375 -85 12 -4 36 -24 53 -44 l32 -37 0 -194 c0 -176 2 -194 18 -198 9 -3
53 -13 97 -22 44 -9 88 -19 98 -21 16 -5 17 16 17 339 l0 345 -23 6 c-53 13
-1039 226 -1048 226 -5 0 -9 -49 -9 -114z"/>
<path d="M2566 6474 c-75 -50 -137 -95 -137 -100 0 -4 222 -57 493 -116 409
-89 497 -106 516 -96 12 6 22 14 22 18 0 3 -149 38 -331 78 -219 47 -338 77
-351 89 -15 13 -18 28 -16 67 3 46 6 53 45 81 23 16 42 32 42 35 1 3 -32 13
-72 21 l-73 15 -138 -92z"/>
<path d="M3657 6448 c-75 -51 -137 -95 -137 -98 0 -3 50 -16 110 -29 139 -30
160 -45 160 -112 0 -47 -2 -51 -45 -81 -51 -36 -49 -39 43 -58 l62 -13 145 99
145 98 -120 26 c-146 32 -162 44 -158 114 3 46 7 53 46 83 27 20 38 35 30 37
-20 7 -118 26 -131 26 -7 0 -74 -41 -150 -92z"/>
<path d="M5330 6466 c0 -25 -7 -39 -25 -53 -25 -18 -25 -18 306 -90 378 -82
382 -84 377 -163 -3 -41 -7 -48 -50 -80 l-48 -35 77 -17 78 -17 187 127 188
126 -537 118 c-296 64 -541 117 -545 118 -5 0 -8 -15 -8 -34z"/>
<path d="M1852 5948 l3 -342 510 -111 c281 -62 522 -115 538 -118 l27 -7 0
118 0 118 -382 83 c-259 56 -392 90 -411 103 -52 37 -57 60 -57 266 l0 189
-103 21 c-57 12 -109 22 -116 22 -8 0 -11 -87 -9 -342z"/>
<path d="M2282 6083 l3 -117 375 -81 c206 -45 384 -86 395 -92 11 -6 31 -23
45 -38 25 -26 25 -30 30 -228 l5 -201 105 -22 c58 -13 108 -23 113 -24 4 0 7
155 7 345 0 190 -4 345 -8 345 -4 0 -245 52 -535 115 -290 63 -530 115 -533
115 -2 0 -3 -53 -2 -117z"/>
<path d="M4268 6097 c-75 -50 -137 -94 -138 -97 0 -3 225 -54 499 -113 415
-90 503 -106 521 -97 12 7 18 15 14 20 -5 4 -153 38 -328 76 -209 45 -328 75
-343 87 -18 15 -23 28 -23 68 0 46 3 51 41 78 22 16 40 33 40 37 0 9 -92 33
-126 33 -11 1 -82 -41 -157 -92z"/>
<path d="M5362 6072 l-144 -96 79 -18 78 -17 142 96 c79 53 141 99 138 101 -5
5 -125 31 -140 31 -5 0 -75 -44 -153 -97z"/>
<path d="M572 5548 l3 -573 100 -22 c55 -12 106 -23 113 -23 9 0 12 88 12 409
l0 409 31 26 c40 34 100 34 247 1 61 -14 118 -25 126 -25 14 0 16 17 16 115 0
63 -2 115 -4 115 -4 0 -582 125 -624 135 l-22 5 2 -572z"/>
<path d="M6358 5973 l-188 -126 0 -99 0 -98 150 100 c134 90 154 100 195 100
l45 0 0 125 c0 69 -3 125 -7 124 -5 0 -92 -57 -195 -126z"/>
<path d="M3560 5577 l0 -343 520 -113 c286 -62 530 -115 541 -118 19 -5 20 -1
17 113 l-3 119 -379 82 c-208 46 -389 90 -402 98 -54 35 -59 55 -64 264 l-5
196 -100 22 c-55 12 -106 22 -112 22 -10 1 -13 -74 -13 -342z"/>
<path d="M5547 5815 c-76 -51 -135 -95 -130 -98 5 -3 39 -11 76 -18 l66 -12
141 93 c77 51 137 97 133 101 -9 8 -106 29 -131 28 -9 0 -79 -42 -155 -94z"/>
<path d="M3990 5714 l0 -119 383 -83 c210 -46 392 -90 405 -98 13 -8 32 -29
42 -47 18 -29 20 -51 20 -222 l0 -190 108 -23 c59 -12 110 -22 115 -22 4 0 7
154 7 343 l0 342 -528 114 c-290 63 -533 116 -539 119 -10 3 -13 -24 -13 -114z"/>
<path d="M5838 5623 l-158 -106 0 -554 0 -553 40 26 39 26 3 437 c3 396 5 439
21 469 11 20 54 56 117 99 l100 66 0 99 c0 54 -1 98 -2 97 -2 0 -74 -48 -160
-106z"/>
<path d="M6483 5602 l-73 -47 0 -425 c0 -516 9 -479 -142 -580 l-97 -65 -1
-126 c0 -115 2 -128 21 -145 13 -12 19 -14 17 -5 -2 7 3 16 11 19 9 3 11 0 6
-9 -5 -8 -4 -11 1 -6 5 5 9 14 9 19 0 6 6 13 14 16 9 3 11 0 6 -8 -5 -9 -4
-11 4 -6 6 4 9 11 6 16 -6 9 203 155 211 147 2 -2 -39 -32 -91 -67 -53 -35
-98 -67 -102 -73 -3 -5 42 23 101 62 58 39 105 76 103 82 -1 7 4 14 12 17 9 3
11 0 6 -9 -5 -8 -4 -11 1 -6 5 5 9 14 9 19 0 6 6 13 14 16 9 3 11 0 7 -9 -4
-8 0 -5 8 5 14 18 16 89 16 618 0 329 -1 598 -2 598 -2 0 -36 -22 -75 -48z"/>
<path d="M990 5164 l0 -406 -29 -29 c-26 -26 -36 -29 -88 -29 -32 1 -113 14
-180 29 l-123 28 0 -118 c0 -66 2 -119 5 -119 7 0 607 -130 628 -136 16 -5 17
25 15 568 l-3 573 -100 22 c-55 12 -106 23 -112 23 -10 0 -13 -88 -13 -406z"/>
<path d="M5270 5144 l0 -406 -29 -29 c-26 -25 -37 -29 -89 -29 -32 0 -110 11
-172 25 -62 14 -119 25 -127 25 -10 0 -13 -25 -13 -114 0 -110 1 -114 23 -119
38 -10 626 -137 632 -137 3 0 5 256 5 570 l0 570 -22 5 c-123 28 -200 45 -203
45 -3 0 -5 -183 -5 -406z"/>
<path d="M1420 5362 l0 -117 383 -83 c390 -84 410 -90 451 -146 19 -25 21 -44
24 -220 l3 -193 102 -22 c56 -11 108 -21 115 -21 10 0 12 72 10 342 l-3 342
-515 112 c-283 62 -527 115 -542 118 l-28 6 0 -118z"/>
<path d="M6083 5332 l-163 -107 0 -98 0 -99 29 19 c16 10 90 59 165 108 l136
90 0 98 c0 53 -1 97 -2 97 -2 0 -76 -48 -165 -108z"/>
<path d="M2700 4855 c0 -190 3 -345 6 -345 4 0 244 -52 534 -115 291 -63 533
-115 539 -115 7 0 11 39 11 115 0 63 -1 115 -2 115 -2 0 -176 38 -387 84 -254
56 -392 90 -409 103 -55 41 -62 71 -62 270 0 164 -2 182 -17 187 -21 6 -200
46 -208 46 -3 0 -5 -155 -5 -345z"/>
<path d="M3130 4991 l0 -118 387 -84 c324 -70 392 -88 417 -108 50 -43 56 -73
56 -271 0 -99 2 -180 5 -180 8 0 187 -40 208 -46 16 -5 17 16 17 340 0 320 -1
345 -17 350 -10 3 -238 53 -508 111 -269 58 -507 110 -527 115 l-38 8 0 -117z"/>
<path d="M1420 4451 l0 -570 58 -11 c31 -7 83 -18 115 -25 l57 -13 0 403 0
403 26 31 c24 29 30 31 94 31 38 0 120 -11 184 -25 64 -14 118 -25 121 -25 3
0 4 52 3 117 l-3 116 -310 68 c-170 37 -318 68 -327 68 -17 1 -18 -33 -18
-568z"/>
<path d="M6083 4879 l-163 -109 0 -100 0 -100 165 112 165 112 0 98 c0 54 -1
98 -2 97 -2 0 -76 -50 -165 -110z"/>
<path d="M4410 4486 c0 -190 1 -346 3 -346 1 0 245 -53 542 -118 l540 -118 3
114 c1 63 1 116 0 117 -2 2 -178 41 -391 88 -325 71 -392 88 -414 108 -47 44
-53 74 -53 269 0 99 -1 180 -3 180 -6 0 -193 41 -209 46 -17 5 -18 -16 -18
-340z"/>
<path d="M1850 4075 l0 -403 -26 -31 c-24 -29 -30 -31 -95 -31 -38 0 -121 11
-185 25 -64 14 -118 25 -120 25 -3 0 -3 -53 -2 -117 l3 -117 310 -67 c171 -38
318 -68 328 -69 16 0 17 34 17 569 l0 569 -32 6 c-18 4 -70 15 -115 25 l-83
19 0 -403z"/>
<path d="M2260 3894 c0 -441 3 -554 13 -548 6 4 24 16 39 26 l27 19 3 439 c3
495 -3 459 87 527 23 18 43 35 44 39 2 6 -174 52 -205 54 -5 0 -8 -250 -8
-556z"/>
<path d="M5833 4257 l-152 -102 -1 -128 c0 -102 3 -129 14 -133 8 -3 49 18 91
46 42 28 79 50 81 47 2 -2 -27 -25 -66 -51 -38 -25 -70 -49 -70 -51 0 -3 34
17 75 45 41 28 74 55 72 61 -1 7 4 14 12 17 9 3 11 0 6 -9 -5 -8 -4 -11 1 -6
5 5 9 14 9 19 0 6 6 13 14 16 9 3 11 0 6 -9 -5 -8 -4 -11 1 -6 5 5 9 14 9 19
0 6 6 13 14 16 9 3 11 0 6 -9 -5 -8 -4 -11 1 -6 5 5 9 14 9 19 0 6 6 13 14 16
9 3 11 0 6 -8 -5 -8 -4 -11 3 -7 12 8 17 307 5 306 -4 0 -77 -46 -160 -102z"/>
<path d="M2730 4339 c0 -20 -61 -76 -142 -130 l-88 -60 0 -94 c0 -52 2 -95 5
-95 3 0 77 48 165 107 l160 106 0 77 0 77 -50 10 c-27 6 -50 7 -50 2z"/>
<path d="M570 3731 c0 -534 1 -570 18 -575 20 -6 199 -46 207 -46 3 0 5 183 5
407 l0 407 27 28 c23 24 34 28 85 28 32 0 110 -11 174 -25 64 -14 120 -25 125
-25 5 0 9 52 9 115 0 111 -1 115 -22 120 -42 10 -620 135 -624 135 -2 0 -4
-256 -4 -569z"/>
<path d="M2990 3966 c0 -214 -4 -334 -11 -357 -16 -48 -50 -80 -151 -146 l-88
-58 0 -98 c0 -76 3 -96 13 -91 6 4 78 52 159 106 126 83 154 98 188 98 l40 0
0 419 0 419 -69 16 c-39 9 -72 16 -75 16 -4 0 -6 -146 -6 -324z"/>
<path d="M2658 3803 l-158 -106 0 -198 c0 -116 -4 -209 -11 -226 -15 -41 -44
-69 -141 -134 l-88 -60 0 -95 c0 -53 4 -94 9 -92 5 2 77 48 160 103 l151 100
0 185 c0 102 5 203 11 225 14 52 46 85 152 156 l87 60 0 94 c0 52 -3 95 -7 94
-5 0 -79 -48 -165 -106z"/>
<path d="M990 3344 l0 -406 -31 -30 c-29 -30 -32 -30 -102 -25 -40 3 -120 17
-179 30 l-108 25 0 -117 0 -117 223 -49 c122 -26 268 -58 325 -70 l102 -22 0
572 0 572 -103 21 c-57 12 -109 22 -115 22 -9 0 -12 -106 -12 -406z"/>
<path d="M3188 3293 c-3 -37 -8 -41 -147 -135 -123 -83 -140 -98 -120 -102 13
-3 67 -15 119 -27 114 -24 140 -43 140 -104 0 -42 -19 -68 -78 -107 -21 -15
-19 -16 55 -31 l78 -16 148 98 147 98 -122 27 c-67 15 -130 34 -140 43 -13 12
-18 31 -18 69 l0 54 85 57 c56 37 81 59 73 64 -11 5 -199 49 -213 49 -2 0 -5
-17 -7 -37z"/>
<path d="M3620 3205 c0 -24 -7 -39 -25 -53 l-25 -20 23 -5 c12 -3 159 -36 327
-72 191 -41 314 -72 330 -84 19 -13 26 -29 28 -60 4 -47 -5 -61 -61 -102 l-37
-27 75 -17 c42 -9 79 -15 84 -13 31 12 359 243 354 248 -5 4 -222 53 -483 109
-261 57 -501 109 -532 116 l-58 13 0 -33z"/>
<path d="M1420 2635 l0 -572 103 -21 c56 -12 108 -22 115 -22 9 0 12 87 12
400 l0 400 28 31 c39 44 88 47 235 15 65 -14 129 -29 143 -32 l25 -6 -3 118
-3 119 -215 47 c-118 26 -266 58 -327 71 l-113 24 0 -572z"/>
<path d="M4900 2927 c0 -41 -14 -54 -177 -162 -57 -37 -103 -71 -103 -74 0 -3
48 -16 108 -29 136 -28 156 -42 160 -110 3 -51 3 -52 -43 -84 -51 -36 -49 -40
42 -57 l62 -12 146 98 147 97 -122 27 c-143 32 -160 43 -160 109 0 53 8 62
108 129 35 24 62 45 59 47 -2 2 -46 13 -98 24 -52 12 -102 23 -111 26 -15 4
-18 -1 -18 -29z"/>
<path d="M2553 2831 l-142 -98 492 -106 c271 -59 501 -107 512 -107 19 1 68
30 50 30 -5 0 -156 32 -335 71 -368 80 -370 81 -370 160 0 47 2 50 50 82 l50
34 -78 16 c-43 9 -80 17 -82 16 -3 0 -69 -45 -147 -98z"/>
<path d="M3655 2810 c-82 -55 -147 -100 -144 -100 28 0 238 -54 256 -65 19
-13 23 -24 23 -70 0 -54 0 -55 -49 -88 l-50 -33 79 -17 78 -16 147 99 147 98
-59 12 c-210 43 -223 50 -223 119 0 46 3 52 46 89 l46 39 -62 12 c-34 7 -67
14 -74 17 -6 2 -78 -41 -161 -96z"/>
<path d="M5340 2831 c0 -20 -8 -35 -27 -49 -22 -16 -25 -22 -13 -26 8 -3 158
-36 333 -75 214 -46 324 -74 337 -86 15 -13 20 -31 20 -67 0 -46 -2 -50 -45
-80 -24 -17 -42 -34 -40 -38 2 -4 35 -12 73 -20 l68 -13 190 127 c104 69 186
126 182 126 -4 0 -245 52 -535 115 -291 63 -531 115 -535 115 -5 0 -8 -13 -8
-29z"/>
<path d="M1850 2316 l0 -344 68 -16 c190 -43 992 -216 1001 -216 7 0 11 40 11
115 0 111 -1 115 -22 120 -13 3 -187 41 -388 84 l-365 79 -37 41 -38 40 0 195
0 194 -97 22 c-54 12 -106 24 -115 26 -17 5 -18 -16 -18 -340z"/>
<path d="M2280 2446 l0 -114 73 -16 c39 -9 213 -47 386 -85 l315 -68 38 -41
38 -41 0 -196 c0 -107 2 -195 5 -195 8 0 187 -40 208 -46 16 -5 17 16 17 340
l0 346 -22 5 c-89 21 -1034 225 -1044 225 -11 0 -14 -24 -14 -114z"/>
<path d="M4272 2463 c-78 -53 -140 -98 -137 -101 2 -2 227 -53 500 -113 482
-105 498 -108 523 -91 24 15 24 17 6 21 -156 29 -652 144 -670 156 -20 13 -24
24 -24 65 0 47 2 51 49 88 l49 39 -64 12 c-35 6 -69 14 -76 16 -8 3 -77 -38
-156 -92z"/>
<path d="M5368 2439 c-76 -51 -135 -95 -133 -99 3 -5 36 -14 73 -20 l68 -13
144 96 c87 58 138 98 129 101 -25 10 -104 26 -124 26 -11 0 -82 -41 -157 -91z"/>
<path d="M570 1911 c0 -534 1 -570 18 -574 9 -3 53 -13 97 -22 44 -9 88 -19
98 -21 16 -5 17 19 17 402 l0 408 27 28 c24 25 34 28 89 28 34 0 114 -11 178
-25 64 -14 118 -25 121 -25 3 0 4 52 3 116 l-3 117 -310 68 c-171 38 -316 68
-322 69 -10 0 -13 -120 -13 -569z"/>
<path d="M6363 2339 l-193 -129 0 -95 c0 -52 2 -95 5 -95 3 0 73 45 155 100
128 85 155 100 190 100 l40 0 0 125 c0 69 -1 125 -2 124 -2 0 -90 -59 -195
-130z"/>
<path d="M3562 1942 l3 -345 520 -113 c286 -62 528 -115 538 -118 15 -4 17 6
17 113 l0 118 -287 62 c-507 111 -482 104 -525 150 l-38 40 0 196 c0 149 -3
195 -12 195 -7 1 -59 11 -116 24 l-102 23 2 -345z"/>
<path d="M5557 2185 c-75 -50 -140 -94 -143 -98 -3 -3 28 -13 69 -22 l75 -17
147 99 148 98 -49 11 c-114 25 -98 30 -247 -71z"/>
<path d="M3990 2076 c0 -101 2 -115 18 -120 9 -3 184 -41 387 -85 l370 -80 38
-40 37 -40 0 -195 c0 -195 0 -196 23 -201 122 -28 199 -45 202 -45 3 0 5 155
5 345 0 190 -2 345 -4 345 -3 0 -242 52 -533 115 -290 63 -531 115 -535 115
-4 0 -8 -51 -8 -114z"/>
<path d="M5837 1985 l-157 -105 0 -550 c0 -303 2 -550 5 -550 3 0 21 10 40 23
l35 22 0 425 c0 516 -9 479 142 580 l97 65 1 98 c0 53 -1 97 -3 97 -1 0 -73
-47 -160 -105z"/>
<path d="M6480 1964 l-65 -44 -5 -438 c-5 -395 -7 -440 -23 -470 -11 -20 -54
-56 -117 -99 l-100 -66 0 -143 c0 -97 4 -145 12 -150 7 -4 8 -3 4 4 -6 11 171
138 180 129 2 -2 -27 -25 -66 -51 -38 -25 -70 -49 -70 -51 0 -3 34 17 75 45
41 28 74 55 72 61 -1 7 4 14 12 17 9 3 11 0 6 -9 -5 -8 -4 -11 1 -6 5 5 9 14
9 19 0 6 6 13 14 16 9 3 11 0 6 -9 -5 -8 -4 -11 1 -6 5 5 9 14 9 19 0 6 6 13
14 16 9 3 11 0 6 -9 -5 -8 -4 -11 1 -6 5 5 9 14 9 19 0 6 6 13 14 16 9 3 11 0
6 -9 -5 -8 -4 -11 1 -6 5 5 9 14 9 19 0 6 6 13 14 16 9 3 11 0 6 -9 -5 -8 -4
-11 1 -6 5 5 9 13 9 18 0 5 4 9 9 8 5 0 13 5 17 13 11 16 12 1198 2 1197 -5 0
-37 -20 -73 -45z"/>
<path d="M990 1595 c0 -319 1 -344 18 -349 9 -3 247 -55 527 -116 281 -61 518
-113 528 -116 15 -5 17 5 17 113 l0 119 -382 83 c-238 51 -392 89 -408 100
-14 10 -35 33 -47 51 -22 31 -23 42 -23 221 l0 188 -57 11 c-32 7 -84 18 -115
25 l-58 13 0 -343z"/>
<path d="M5270 1509 l0 -401 -34 -34 c-48 -48 -87 -46 -373 21 -23 5 -23 5
-23 -112 l0 -118 318 -69 c174 -38 323 -71 330 -74 9 -3 12 115 12 570 l0 574
-107 22 c-60 12 -111 22 -115 22 -5 0 -8 -180 -8 -401z"/>
<path d="M1420 1725 c0 -111 1 -115 23 -120 12 -3 184 -41 383 -84 199 -43
373 -86 387 -95 57 -38 62 -55 67 -265 l5 -195 80 -17 c44 -10 94 -20 112 -24
l33 -6 0 346 c0 190 -4 345 -8 345 -4 0 -245 52 -536 115 -290 63 -532 115
-537 115 -5 0 -9 -52 -9 -115z"/>
<path d="M6083 1697 l-163 -111 0 -98 0 -98 165 110 165 110 0 100 c0 55 -1
100 -2 99 -2 -1 -76 -51 -165 -112z"/>
<path d="M2702 1218 l3 -343 535 -117 c294 -64 539 -117 543 -117 4 -1 6 52 5
116 l-3 117 -355 78 c-195 42 -371 81 -390 87 -20 6 -51 27 -70 46 l-35 36 -3
197 -3 198 -102 22 c-57 12 -108 22 -115 22 -10 0 -12 -77 -10 -342z"/>
<path d="M3132 1354 l3 -118 385 -83 385 -84 40 -40 40 -39 3 -198 3 -198 107
-22 c59 -12 110 -22 115 -22 4 0 7 154 7 343 l0 342 -528 114 c-290 63 -535
117 -545 119 -16 4 -17 -5 -15 -114z"/>
<path d="M6083 1242 l-163 -107 0 -98 c0 -54 3 -97 8 -95 4 2 78 50 164 108
l157 105 1 98 c0 53 -1 97 -2 97 -2 0 -76 -48 -165 -108z"/>
<path d="M4410 847 l0 -343 538 -117 c295 -64 540 -117 545 -117 4 0 7 51 7
114 0 101 -2 115 -17 120 -10 3 -184 41 -388 85 l-369 81 -41 40 -40 40 -5
197 -5 196 -100 23 c-55 13 -106 23 -112 24 -10 0 -13 -75 -13 -343z"/>
<path d="M5838 622 l-158 -105 0 -109 0 -108 27 0 c14 0 34 -7 44 -16 17 -15
20 -14 48 5 17 12 30 27 28 33 -1 6 4 13 12 16 9 3 11 0 6 -9 -5 -8 -4 -11 1
-6 5 5 9 14 9 20 0 5 6 12 14 15 9 3 11 0 6 -9 -5 -8 -4 -11 1 -6 5 5 9 14 9
20 0 5 6 12 14 15 9 3 11 0 6 -9 -5 -8 -4 -11 1 -6 5 5 9 14 9 19 0 6 6 13 14
16 9 3 11 0 6 -9 -5 -8 -4 -11 1 -6 5 5 9 14 9 19 0 6 6 13 14 16 9 3 11 0 6
-9 -5 -8 -4 -11 1 -6 5 5 9 14 9 19 0 6 6 13 14 16 9 3 11 0 6 -9 -5 -8 -5
-11 -1 -7 7 6 9 299 3 304 -1 1 -73 -46 -159 -104z m-38 -322 c-14 -11 -29
-20 -35 -20 -5 0 1 9 15 20 14 11 30 20 35 20 6 0 -1 -9 -15 -20z"/>
</g>
</svg>
