<?xml version="1.0" encoding="UTF-8"?>
<svg version="1.1" xmlns="http://www.w3.org/2000/svg" width="177" height="177">
<path d="M0 0 C3.65455465 2.99795193 6.95094584 6.28367305 10.22998047 9.68359375 C10.89384766 10.31652344 11.55771484 10.94945313 12.24169922 11.6015625 C25.24492636 24.83855553 28.72894765 43.10859525 28.57763672 60.8984375 C28.10971253 80.62513628 20.27958088 96.13353468 6.22998047 109.68359375 C5.59705078 110.34746094 4.96412109 111.01132813 4.31201172 111.6953125 C-8.92498131 124.69853965 -27.19502103 128.18256093 -44.98486328 128.03125 C-64.71156206 127.56332581 -80.21996047 119.73319416 -93.77001953 105.68359375 C-94.43388672 105.05066406 -95.09775391 104.41773438 -95.78173828 103.765625 C-108.78496543 90.52863197 -112.26898671 72.25859225 -112.11767578 54.46875 C-111.64975159 34.74205122 -103.81961995 19.23365282 -89.77001953 5.68359375 C-89.13708984 5.01972656 -88.50416016 4.35585938 -87.85205078 3.671875 C-65.41851309 -18.36548542 -24.48371452 -18.20912948 0 0 Z M-92.77001953 30.68359375 C-93.51160875 34.8182397 -93.42259953 38.90717514 -93.36376953 43.09765625 C-93.36380981 44.30424896 -93.3638501 45.51084167 -93.3638916 46.7539978 C-93.358536 49.30089537 -93.34095193 51.84779248 -93.31201172 54.39453125 C-93.27009787 58.30129219 -93.27094841 62.20633305 -93.27783203 66.11328125 C-93.2673419 68.58725161 -93.25440475 71.06121306 -93.23876953 73.53515625 C-93.23856812 74.70704498 -93.2383667 75.87893372 -93.23815918 77.08633423 C-93.22224731 78.17111053 -93.20633545 79.25588684 -93.18994141 80.37353516 C-93.18152222 81.32886139 -93.17310303 82.28418762 -93.16442871 83.26846313 C-92.70264318 86.09616704 -92.05356027 87.00236856 -89.77001953 88.68359375 C-87.45229985 89.0959275 -87.45229985 89.0959275 -84.88330078 88.9765625 C-83.61546753 88.96532349 -83.61546753 88.96532349 -82.32202148 88.95385742 C-81.25298584 88.92654541 -80.1839502 88.8992334 -79.08251953 88.87109375 C-75.67939453 88.80921875 -72.27626953 88.74734375 -68.77001953 88.68359375 C-68.44001953 78.78359375 -68.11001953 68.88359375 -67.77001953 58.68359375 C-56.02001953 66.24609375 -56.02001953 66.24609375 -52.33349609 68.64672852 C-51.36895508 69.25830811 -50.40441406 69.8698877 -49.41064453 70.5 C-48.42612305 71.13365479 -47.44160156 71.76730957 -46.42724609 72.42016602 C-43.94842112 73.86353871 -43.94842112 73.86353871 -41.70874023 73.54833984 C-39.39782499 72.51758027 -37.27354692 71.34589046 -35.10986328 70.03125 C-34.23394531 69.50208984 -33.35802734 68.97292969 -32.45556641 68.42773438 C-31.54871094 67.87279297 -30.64185547 67.31785156 -29.70751953 66.74609375 C-28.79679687 66.19501953 -27.88607422 65.64394531 -26.94775391 65.07617188 C-23.51659345 62.99522489 -20.10932504 60.90979742 -16.77001953 58.68359375 C-16.44001953 68.58359375 -16.11001953 78.48359375 -15.77001953 88.68359375 C-12.36689453 88.74546875 -8.96376953 88.80734375 -5.45751953 88.87109375 C-4.38848389 88.89840576 -3.31944824 88.92571777 -2.21801758 88.95385742 C-1.37279541 88.9613501 -0.52757324 88.96884277 0.34326172 88.9765625 C1.63937378 89.00012817 1.63937378 89.00012817 2.96166992 89.02416992 C5.80861119 88.59671507 6.49491053 87.95268729 8.22998047 85.68359375 C8.69856226 83.20010269 8.69856226 83.20010269 8.64990234 80.37353516 C8.66581421 79.28875885 8.68172607 78.20398254 8.69812012 77.08633423 C8.69842224 75.32850113 8.69842224 75.32850113 8.69873047 73.53515625 C8.70634399 72.33047699 8.71395752 71.12579773 8.72180176 69.88461304 C8.7326159 67.33422927 8.73545057 64.78380117 8.73095703 62.23339844 C8.72998595 58.33062769 8.77157154 54.42982985 8.81591797 50.52734375 C8.82112566 48.05078536 8.82381315 45.57422012 8.82373047 43.09765625 C8.84012573 41.92981598 8.856521 40.76197571 8.87341309 39.55874634 C8.86065836 33.09312013 8.86065836 33.09312013 5.98681641 27.44848633 C1.61408949 24.64912015 -1.74660528 24.71748157 -6.77001953 25.68359375 C-10.2893159 27.11637013 -13.35278731 29.03539365 -16.52001953 31.12109375 C-17.38111328 31.66080811 -18.24220703 32.20052246 -19.12939453 32.7565918 C-23.1392967 35.28254672 -27.09230012 37.89126031 -31.03564453 40.51953125 C-31.67276367 40.94049072 -32.30988281 41.3614502 -32.96630859 41.79516602 C-34.66240653 42.924444 -36.34185281 44.07861835 -38.02001953 45.234375 C-40.77001953 46.68359375 -40.77001953 46.68359375 -42.67260742 46.42675781 C-45.01507424 45.59676491 -46.95490235 44.53393881 -49.07861328 43.2421875 C-49.90184082 42.74428711 -50.72506836 42.24638672 -51.57324219 41.73339844 C-52.44255371 41.20133789 -53.31186523 40.66927734 -54.20751953 40.12109375 C-55.1026123 39.58258789 -55.99770508 39.04408203 -56.91992188 38.48925781 C-60.87411265 36.10265427 -64.79954567 33.69748231 -68.62548828 31.109375 C-74.32019409 27.31970817 -78.60252435 24.7831786 -85.55126953 24.9140625 C-88.90034065 26.07562414 -91.00596686 27.64605108 -92.77001953 30.68359375 Z " fill="#292929" transform="translate(130.77001953125,31.31640625)"/>
<path d="M0 0 C3.65455465 2.99795193 6.95094584 6.28367305 10.22998047 9.68359375 C10.89384766 10.31652344 11.55771484 10.94945313 12.24169922 11.6015625 C25.24492636 24.83855553 28.72894765 43.10859525 28.57763672 60.8984375 C28.10971253 80.62513628 20.27958088 96.13353468 6.22998047 109.68359375 C5.59705078 110.34746094 4.96412109 111.01132813 4.31201172 111.6953125 C-8.92498131 124.69853965 -27.19502103 128.18256093 -44.98486328 128.03125 C-64.71156206 127.56332581 -80.21996047 119.73319416 -93.77001953 105.68359375 C-94.43388672 105.05066406 -95.09775391 104.41773438 -95.78173828 103.765625 C-108.78496543 90.52863197 -112.26898671 72.25859225 -112.11767578 54.46875 C-111.64975159 34.74205122 -103.81961995 19.23365282 -89.77001953 5.68359375 C-89.13708984 5.01972656 -88.50416016 4.35585938 -87.85205078 3.671875 C-65.41851309 -18.36548542 -24.48371452 -18.20912948 0 0 Z M-96.92236328 15.21875 C-108.34847011 30.59523949 -112.77012122 48.78819925 -110.77001953 67.68359375 C-107.54316309 86.67410719 -97.28403483 103.17086661 -81.83251953 114.62109375 C-66.34051842 124.66590738 -47.93426351 129.45612454 -29.54101562 126.30126953 C-9.53275279 121.84955335 6.16673602 110.99949169 17.32763672 93.9453125 C20.19681965 89.02587154 22.36564522 84.05726595 24.22998047 78.68359375 C24.54837891 77.84957031 24.86677734 77.01554687 25.19482422 76.15625 C30.51155389 60.25506311 27.74898157 41.72562825 20.64672852 26.84301758 C12.49317462 10.94450224 -1.02933722 -1.01904115 -17.77001953 -7.31640625 C-18.80513672 -7.70957031 -19.84025391 -8.10273438 -20.90673828 -8.5078125 C-49.36060479 -17.99243467 -78.10213243 -6.94881774 -96.92236328 15.21875 Z " fill="#F2F2F2" transform="translate(130.77001953125,31.31640625)"/>
<path d="M0 0 C1.18690709 2.86835881 0.97507582 4.07979759 0.03125 7.1015625 C-3.20846749 14.55621857 -6.51637871 21.86625866 -12 28 C-12.66 28 -13.32 28 -14 28 C-12.54879068 24.96293307 -10.88838989 22.07593459 -9.18164062 19.17626953 C-5.5378512 12.96465254 -2.38879907 6.82064999 0 0 Z " fill="#E8E8E8" transform="translate(156,106)"/>
</svg>
